<svg xmlns="http://www.w3.org/2000/svg" viewBox="0 0 100 125" x="0px" y="0px"><defs><style>.cls-1{fill:none;}</style></defs><title>Artboard 32</title><g data-name="Layer 2"><path d="M8,44.49h.63V45a.9.9,0,0,0,1.8,0v-.52h.63a.9.9,0,1,0,0-1.8h-.63v-.52a.9.9,0,0,0-1.8,0v.52H8a.9.9,0,0,0,0,1.8Z"/><path d="M30.48,52.47a.9.9,0,0,0,.9-.9v-.52H32a.9.9,0,0,0,0-1.8h-.64v-.52a.9.9,0,0,0-1.8,0v.52H29a.9.9,0,1,0,0,1.8h.63v.52A.91.91,0,0,0,30.48,52.47Z"/><path d="M69.72,10.72h.63v.52a.9.9,0,1,0,1.8,0v-.52h.63a.9.9,0,1,0,0-1.8h-.63V8.4a.9.9,0,0,0-1.8,0v.52h-.63a.9.9,0,0,0,0,1.8Z"/><path d="M55.47,21.71h.63v.52a.9.9,0,0,0,1.8,0v-.52h.63a.9.9,0,1,0,0-1.8H57.9v-.52a.9.9,0,1,0-1.8,0v.52h-.63a.9.9,0,1,0,0,1.8Z"/><path d="M83.17,26.39h.63v.52a.9.9,0,0,0,1.8,0v-.52h.63a.9.9,0,1,0,0-1.8H85.6v-.51a.9.9,0,1,0-1.8,0v.51h-.63a.9.9,0,0,0,0,1.8Z"/><path d="M41.13,9.3h.63v.52a.9.9,0,0,0,1.8,0V9.3h.64a.9.9,0,0,0,0-1.8h-.64V7a.9.9,0,0,0-1.8,0V7.5h-.63a.9.9,0,1,0,0,1.8Z"/><path d="M30.48,41A13.64,13.64,0,1,0,16.85,27.34,13.64,13.64,0,0,0,30.48,41Zm0-1.8a11.8,11.8,0,0,1-8.82-4,40.57,40.57,0,0,1,7.47,1.39,30.51,30.51,0,0,0,6.92,1.19A11.74,11.74,0,0,1,30.48,39.18Zm0-23.67a11.79,11.79,0,0,1,7.79,2.94c-2.83.49-5.57-.19-8.69-1-1.25-.32-2.56-.64-3.94-.91A11.72,11.72,0,0,1,30.48,15.51ZM23.27,18a48.9,48.9,0,0,1,5.86,1.23,29.41,29.41,0,0,0,7.17,1.21A13.18,13.18,0,0,0,39.72,20a11.67,11.67,0,0,1,1.28,2c-3.87,1.77-7.31.91-11.42-.13A39.68,39.68,0,0,0,21,20.35,12.07,12.07,0,0,1,23.27,18Zm-3.39,4.13a35.28,35.28,0,0,1,9.25,1.45,29.39,29.39,0,0,0,7.17,1.2,12.9,12.9,0,0,0,5.4-1.16,11,11,0,0,1,.49,2.07c-4.38,2.56-8.09,1.63-12.61.49A35,35,0,0,0,19,24.7,12.08,12.08,0,0,1,19.88,22.11Zm-1.23,5.23c0-.28,0-.55,0-.83A32.52,32.52,0,0,1,29.13,27.9a29.41,29.41,0,0,0,7.17,1.21,12.91,12.91,0,0,0,6-1.46A11.4,11.4,0,0,1,42,30.14c-4.28,2.4-7.94,1.49-12.39.36a35.1,35.1,0,0,0-10.79-1.45A12,12,0,0,1,18.65,27.34Zm.52,3.49a33.55,33.55,0,0,1,10,1.42,29.39,29.39,0,0,0,7.17,1.2,12.9,12.9,0,0,0,4.8-.91,12,12,0,0,1-2.27,3.19c-3,.69-5.92,0-9.25-.88a38.09,38.09,0,0,0-9.27-1.49A11.79,11.79,0,0,1,19.17,30.83Z"/><path d="M68.15,36.15a5.37,5.37,0,0,0,.12,9.57.79.79,0,0,0,.4.1.9.9,0,0,0,.8-.5.91.91,0,0,0-.4-1.21,3.54,3.54,0,0,1-1.58-1.53A3.59,3.59,0,0,1,69,37.74a3.58,3.58,0,0,1,4.82,4.86.9.9,0,0,0,1.59.85,5.38,5.38,0,0,0-7.25-7.3Z"/><path class="cls-1" d="M56,44.67a2.82,2.82,0,0,0-2.09-5.21,23,23,0,0,0-1.79,3.86c0,.06,0,.11.07.17A2.84,2.84,0,0,0,56,44.67Z"/><path class="cls-1" d="M83.7,50.7a7.95,7.95,0,0,0-9.41,3.89l2.24,1.13a56.06,56.06,0,0,0,5.24,2.49c.22,0,.49,0,.76,0a5.49,5.49,0,0,1,1.61.06l.14,0a2.81,2.81,0,0,1,.74.32,3.69,3.69,0,0,1,.89.87l.09.1a8.58,8.58,0,0,0,1.65,1.54c.3.22.62.4.94.59a8,8,0,0,0-4.89-11Z"/><path class="cls-1" d="M85.57,39.76a3.58,3.58,0,0,0,2.11,1.74,3.57,3.57,0,0,0,4.48-2.36.13.13,0,0,0,0-.06,22.45,22.45,0,0,0-3.7-4.56,3.58,3.58,0,0,0-2.9,5.24Z"/><path class="cls-1" d="M93.22,41a5.37,5.37,0,1,1-7-7.7,4.12,4.12,0,0,1,.58-.23,22.33,22.33,0,0,0-13.69-4.68h0a22.28,22.28,0,0,0-18,9.16,4.62,4.62,0,1,1-3.66,7.91,22,22,0,0,0-.45,8.2C54.88,51,58.53,48.07,58.58,48a.92.92,0,0,1,.59-.2h0a1.23,1.23,0,0,1,.25.05l.08,0h0a30.81,30.81,0,0,1,3.67,1.85c.47.26,1,.56,1.15.62l1,.43a37.16,37.16,0,0,0,3.85,1.55,19.15,19.15,0,0,1,3.46,1.43,9.78,9.78,0,0,1,17.5,8.73l1.48.75A22.37,22.37,0,0,0,93.22,41Z"/><path d="M98.31,66.61l-4.15-2.09-.89-.44A24.15,24.15,0,0,0,94.49,39.5l-.42-.73v0l-.35-.59-.23-.36c-.21-.34-.44-.68-.67-1-.07-.1-.13-.2-.2-.29-.3-.4-.6-.8-.92-1.18l-.2-.24c-.26-.3-.53-.6-.8-.89l-.3-.31q-.47-.48-1-.93l-.1-.1-.14-.12h0a24.15,24.15,0,0,0-16.07-6.12h0a24.06,24.06,0,0,0-11.23,2.79q-1.11.59-2.13,1.26A24.16,24.16,0,0,0,49.23,54c-1.32-1.11-3.07-2.42-4-3.14l-.56-.42a1.1,1.1,0,0,0-.14-.09l-.06-.05h0a.8.8,0,0,0-.95.1c-.22.16-1.28.75-2.45,1.33-.4.19-.82.39-1.22.56a9.31,9.31,0,0,1-1.78.62,6.85,6.85,0,0,1-.91.1,8.4,8.4,0,0,0-1.18.14c-.69.14-2.47,1.19-6.21,3.49-1,.62-2.13,1.32-2.31,1.41a7.06,7.06,0,0,1-1.53.27,10.65,10.65,0,0,0-1.63.27,10.16,10.16,0,0,0-1.86.82c-.26.14-.53.29-.8.41s-1.49.56-7,2.25c0,0-4.21,1.47-6.26,1.94a44.06,44.06,0,0,0-6.52,2.17.9.9,0,0,0,.34,1.73.84.84,0,0,0,.35-.07,43.29,43.29,0,0,1,6.23-2.08c1.41-.32,3.67-1.05,5.1-1.53l1.32-.45c4.42-1.34,6.72-2.08,7.24-2.32.31-.14.6-.3.9-.46a7.86,7.86,0,0,1,1.5-.67,7.53,7.53,0,0,1,1.33-.22,7.7,7.7,0,0,0,2-.37,26.21,26.21,0,0,0,2.65-1.57,62.54,62.54,0,0,1,5.62-3.26,8.67,8.67,0,0,1,.94-.11,9,9,0,0,0,1.13-.12,13.14,13.14,0,0,0,2.47-.88s0,.08-.07.13a6,6,0,0,0-.33,2.55l0,1a14.58,14.58,0,0,0-2.59,1.21c-.55.3-1.08.59-1.6.81a10.32,10.32,0,0,1-1.76.53c-.33.08-.65.16-1,.26a24.91,24.91,0,0,0-4.32,1.83l-4.79,2.41a6.17,6.17,0,0,1-1.54.61,5.77,5.77,0,0,1-1,.08l-.64,0A14.28,14.28,0,0,0,18,66l-2.64.87L9.75,68.74a.9.9,0,0,0-.57,1.14.89.89,0,0,0,.85.62.87.87,0,0,0,.28,0l5.31-1.74,3-1a12.57,12.57,0,0,1,2.83-.69L22,67a7,7,0,0,0,1.26-.11,7.79,7.79,0,0,0,2-.78L30,63.73A23,23,0,0,1,34,62l.9-.24A12.31,12.31,0,0,0,37,61.16c.6-.26,1.19-.59,1.75-.9a19.37,19.37,0,0,1,1.77-.88l0,1h0a15.24,15.24,0,0,0,.42,3.64c0,.1.07.19.11.29C37.72,65.7,26.91,70.51,26.1,71.1c-1.41,1-4.14,1.8-6.54,2.47-1.17.32-2.26.63-3.15,1l-.17.06a.9.9,0,0,0,.31,1.74h.1l.22,0c.84-.32,2-.63,3.17-1,2.56-.71,5.45-1.51,7.11-2.73.78-.5,11.56-5.34,14.57-6.57.36.67.75,1.31,1.15,1.94a22.9,22.9,0,0,1,1.25,2.15c-2,1.68-5.45,4.37-7,4.77a.9.9,0,0,0,.21,1.77.78.78,0,0,0,.22,0c2-.5,5.42-3.19,7.25-4.7a18.76,18.76,0,0,1,.21,4.6c0,.66,0,1.33,0,2a7.84,7.84,0,0,1-4.32,2.06.9.9,0,0,0,.1,1.79h.1a9.77,9.77,0,0,0,4.27-1.65,9.82,9.82,0,0,0,.35,1.66.82.82,0,0,0,.09.19A21.5,21.5,0,0,1,47.93,93a.9.9,0,0,0,.88.92h0a.9.9,0,0,0,.9-.88,23,23,0,0,0-2.62-11.3,16.55,16.55,0,0,1-.35-5.17,16.72,16.72,0,0,0-.56-6.16c0-.11-.09-.21-.13-.32l0-.1a18.15,18.15,0,0,0-1.64-3,13.81,13.81,0,0,1-1.74-3.42,14.1,14.1,0,0,1-.35-3.13l-.08-4a4.35,4.35,0,0,1,.19-1.8,6.16,6.16,0,0,1,1.11-1.45c.24-.26.48-.53.71-.8,1.08.81,2.7,1.95,3.92,3L46.49,56.6a.9.9,0,1,0,.89,1.57c.83-.48,9.37-6.41,11.09-7.76a17.19,17.19,0,0,0,1.16,2.83l.2.42a6,6,0,0,1-1.77,1.09,6.41,6.41,0,0,0-2.65,1.83c-.11.14-.2.29-.3.44a2.1,2.1,0,0,1-.44.56,2.43,2.43,0,0,1-.41.17l-.12,0a8,8,0,0,0-2.93,1.88.91.91,0,0,0,0,1.27.93.93,0,0,0,.64.26.9.9,0,0,0,.64-.27,6.05,6.05,0,0,1,2.25-1.45l.11,0a3.43,3.43,0,0,0,.81-.38,3.51,3.51,0,0,0,1-1.08,3.78,3.78,0,0,1,.22-.33,5,5,0,0,1,2-1.28,10.3,10.3,0,0,0,1.68-.93,16.54,16.54,0,0,1,.27,3.63v.32l-1.19,1.1c-.52.48-1,1-1.49,1.39a2.19,2.19,0,0,1-.5.4,2.51,2.51,0,0,1-.43.1l-.16,0a12.5,12.5,0,0,0-3.35,1.35A.91.91,0,0,0,53.28,65a.89.89,0,0,0,.8.48.86.86,0,0,0,.41-.1,10.88,10.88,0,0,1,2.87-1.18l.13,0a2.87,2.87,0,0,0,.84-.23,3.48,3.48,0,0,0,1-.74c.44-.42.94-.88,1.44-1.34V63a6.76,6.76,0,0,1-.63,3.56,6.44,6.44,0,0,1-.55.7l-.11.13a31.5,31.5,0,0,0-3.34,2.08A27.59,27.59,0,0,1,53.77,71a.9.9,0,0,0,.17,1.78H54c.5-.05,1.18-.48,3.13-1.8l1-.68a14.63,14.63,0,0,0-.08,1.85c0,3.7-.19,7.45-.51,11.15A9.13,9.13,0,0,1,57.31,85a5.66,5.66,0,0,1-.2.58c-.08.24-.17.48-.24.73a.89.89,0,0,0,.61,1.11.77.77,0,0,0,.25,0,.92.92,0,0,0,.87-.65c.06-.21.13-.41.2-.61s.17-.46.24-.69a10,10,0,0,0,.33-2.08c.33-3.74.5-7.54.52-11.29a5.85,5.85,0,0,1,.47-2.92,5.69,5.69,0,0,1,.6-.79,7.42,7.42,0,0,0,.71-.9A8.26,8.26,0,0,0,62.58,63v-4a13.58,13.58,0,0,0-.81-5.53c-.16-.36-.34-.72-.51-1.09a19.09,19.09,0,0,1-1-2.22c.7.35,1.45.77,2,1.09a14,14,0,0,0,1.35.71l1,.42a32.69,32.69,0,0,0,4.19,1.66,57.83,57.83,0,0,1,6.88,3.2C79.5,59.24,81,60,81.65,60h.09a4.94,4.94,0,0,1-3.27,1.76.9.9,0,0,0,.06,1.8h0a7.41,7.41,0,0,0,5.09-3l.4-.44a2.56,2.56,0,0,1,.45.47l.1.11a10.32,10.32,0,0,0,2,1.86,19.77,19.77,0,0,0,2.7,1.55c1.51.77,2.78,1.4,4,2l4.11,2.07,0,0a1,1,0,0,0,.41.1.92.92,0,0,0,.8-.5A.9.9,0,0,0,98.31,66.61ZM88.47,34.52a22.45,22.45,0,0,1,3.7,4.56.13.13,0,0,1,0,.06,3.57,3.57,0,0,1-4.48,2.36,3.57,3.57,0,0,1,.79-7ZM53.9,39.46a2.82,2.82,0,1,1-1.72,4c0-.06,0-.11-.07-.17A23,23,0,0,1,53.9,39.46ZM88.59,61.67c-.32-.19-.64-.37-.94-.59A8.58,8.58,0,0,1,86,59.54l-.09-.1a3.69,3.69,0,0,0-.89-.87,2.81,2.81,0,0,0-.74-.32l-.14,0a5.49,5.49,0,0,0-1.61-.06c-.27,0-.54,0-.76,0a56.06,56.06,0,0,1-5.24-2.49l-2.24-1.13a8,8,0,0,1,14.3,7.08Zm1.58.85a9.78,9.78,0,0,0-17.5-8.73,19.15,19.15,0,0,0-3.46-1.43,37.16,37.16,0,0,1-3.85-1.55l-1-.43c-.15-.06-.68-.36-1.15-.62a30.81,30.81,0,0,0-3.67-1.85h0l-.08,0a1.23,1.23,0,0,0-.25-.05h0a.92.92,0,0,0-.59.2s-3.7,3-7.56,5.66a22,22,0,0,1,.45-8.2,4.66,4.66,0,0,0,3.21,1.3,4.62,4.62,0,0,0,.45-9.21,22.28,22.28,0,0,1,18-9.16h0A22.33,22.33,0,0,1,86.81,33.1a4.12,4.12,0,0,0-.58.23,5.38,5.38,0,1,0,7,7.7,22.37,22.37,0,0,1-1.57,22.24Z"/><path d="M33,76.61l-1,.56a44.2,44.2,0,0,1-5.56,3,.9.9,0,0,0,0,1.8h0c.76,0,2.32-.79,6.43-3.2.39-.24.72-.43.92-.54A.9.9,0,0,0,33,76.61Z"/></g><text x="0" y="115" fill="#000000" font-size="5px" font-weight="bold" font-family="'Helvetica Neue', Helvetica, Arial-Unicode, Arial, Sans-serif">Created by Florent B</text><text x="0" y="120" fill="#000000" font-size="5px" font-weight="bold" font-family="'Helvetica Neue', Helvetica, Arial-Unicode, Arial, Sans-serif">from the Noun Project</text></svg>